# This file uses centimeters as units for non-parametric coordinates.

mtllib street1.mtl
g default
v -128.000000 -520.000000 -1792.000000
v -128.000000 -520.000000 -12288.000000
v -1088.000000 -520.000000 -1792.000000
v -368.751678 -520.000000 -9655.782227
v -128.000000 -520.000000 -9624.671875
v -702.193787 -520.000000 -6010.148438
v -128.000000 -520.000000 -5896.187012
v -128.000000 -520.000000 -12288.000000
v -1088.000000 -520.000000 -12288.000000
v -1088.000000 -520.000000 -1792.000000
v -1088.000000 -520.000000 -9702.783203
v -375.637787 -520.000000 -9580.493164
v -375.418884 -520.000000 -9582.887695
v -1088.000000 -520.000000 -5765.720703
v -731.881531 -520.000000 -5685.561035
v -1088.000000 -520.000000 -12288.000000
v -1088.000000 -520.000000 -12032.000000
v -1088.000000 -520.000000 -1792.000000
v -1088.000000 -520.000000 -12032.000000
v -1088.000000 -520.000000 -10752.000000
v -1088.000000 -520.000000 -1792.000000
v -1088.000000 -520.000000 -10752.000000
v -1088.000000 -520.000000 -8448.000000
v -1088.000000 -520.000000 -1792.000000
v -1088.000000 -520.000000 -8448.000000
v -1088.000000 -520.000000 -4352.000000
v -1088.000000 -520.000000 -1792.000000
v -1088.000000 -520.000000 -4352.000000
v -1088.000000 -520.000000 -2336.000000
v -1088.000000 -520.000000 -1792.000000
v 128.000000 -520.000000 -12288.000000
v 128.000000 -520.000000 -1792.000000
v 1080.000000 -520.000000 -12288.000000
v 128.000000 -520.000000 -9593.781250
v 823.451233 -520.000000 -9459.496094
v 128.000000 -520.000000 -6227.125000
v 523.950256 -520.000000 -6157.435059
v 128.000000 -520.000000 -1792.000000
v 1088.000000 -520.000000 -1792.000000
v 1080.000000 -520.000000 -12288.000000
v 821.718567 -520.000000 -9440.393555
v 1082.213379 -520.000000 -9383.934570
v 541.873169 -520.000000 -6355.039551
v 1084.585449 -520.000000 -6271.780762
v 1088.000000 -520.000000 -1792.000000
v 1088.000000 -520.000000 -10880.000000
v 1080.000000 -520.000000 -12288.000000
vt 27.811903 1.769853
vt 27.730886 2.083331
vt 34.666630 2.083331
vt 18.021301 2.083331
vt 18.318075 1.335683
vt 7.333326 2.083331
vt 7.333326 0.833332
vt 34.666630 2.083331
vt 34.666630 0.833332
vt 27.622072 1.761171
vt 27.615839 1.760886
vt 27.934299 0.833332
vt 17.681545 0.833332
vt 17.472797 1.297027
vt 7.333326 0.833332
vt 34.666630 0.833332
vt 33.999966 0.833332
vt 7.333326 0.833332
vt 33.999966 0.833332
vt 30.666636 0.833332
vt 7.333326 0.833332
vt 30.666636 0.833332
vt 24.666641 0.833332
vt 7.333326 0.833332
vt 24.666641 0.833332
vt 13.999986 0.833332
vt 7.333326 0.833332
vt 13.999986 0.833332
vt 8.749990 0.833332
vt 7.333326 0.833332
vt 34.666630 0.833332
vt 27.650442 0.833332
vt 34.666630 2.072915
vt 27.300741 1.738867
vt 18.883118 0.833332
vt 18.701633 1.348892
vt 7.333326 0.833332
vt 27.250996 1.736611
vt 27.103971 2.075797
vt 34.666630 2.072915
vt 18.999411 2.078886
vt 19.216227 1.372229
vt 7.333326 2.083331
vt 7.333326 0.833332
vt 7.333326 2.083331
vt 30.999968 2.083331
vt 34.666630 2.072915
vn 0.000000 1.000000 0.000000
vn 0.000000 1.000000 0.000000
vn 0.000000 1.000000 0.000000
vn 0.000000 1.000000 -0.000000
vn 0.000000 1.000000 -0.000000
vn 0.000000 1.000000 0.000000
vn 0.000000 1.000000 -0.000000
vn 0.000000 1.000000 0.000000
vn 0.000000 1.000000 0.000000
vn 0.000000 1.000000 0.000000
vn 0.000000 1.000000 0.000000
vn 0.000000 1.000000 0.000000
vn 0.000000 1.000000 0.000000
vn 0.000000 1.000000 0.000000
vn 0.000000 1.000000 0.000000
vn 0.000000 0.000000 0.000000
vn 0.000000 0.000000 0.000000
vn 0.000000 0.000000 0.000000
vn 0.000000 0.000000 0.000000
vn 0.000000 0.000000 0.000000
vn 0.000000 0.000000 0.000000
vn 0.000000 0.000000 0.000000
vn 0.000000 0.000000 0.000000
vn 0.000000 0.000000 0.000000
vn 0.000000 0.000000 0.000000
vn 0.000000 0.000000 0.000000
vn 0.000000 0.000000 0.000000
vn 0.000000 0.000000 0.000000
vn 0.000000 0.000000 0.000000
vn 0.000000 0.000000 0.000000
vn 0.000000 1.000000 0.000000
vn 0.000000 1.000000 0.000000
vn 0.000000 1.000000 0.000000
vn 0.000000 1.000000 0.000000
vn 0.000000 1.000000 -0.000000
vn 0.000000 1.000000 -0.000000
vn 0.000000 1.000000 0.000000
vn 0.000000 1.000000 0.000000
vn 0.000000 1.000000 0.000000
vn 0.000000 1.000000 0.000000
vn 0.000000 1.000000 0.000000
vn 0.000000 1.000000 0.000000
vn 0.000000 1.000000 0.000000
vn 0.000000 1.000000 0.000000
vn 0.000000 1.000000 0.000000
vn 0.000000 1.000000 0.000000
vn 0.000000 1.000000 0.000000
s 1
g road3
usemtl initialShadingGroup
f 4/1/1 5/2/2 2/3/3
f 7/4/4 5/2/2 6/5/5
f 6/5/5 5/2/2 4/1/1
f 1/6/6 7/4/4 3/7/7
f 3/7/7 7/4/4 6/5/5
s 2
f 8/8/8 9/9/9 13/10/10
f 12/11/11 13/10/10 11/12/12
f 9/9/9 11/12/12 13/10/10
f 11/12/12 14/13/13 12/11/11
f 12/11/11 14/13/13 15/14/14
f 15/14/14 14/13/13 10/15/15
s off
f 16/16/16 17/17/17 18/18/18
f 19/19/19 20/20/20 21/21/21
f 22/22/22 23/23/23 24/24/24
f 25/25/25 26/26/26 27/27/27
f 28/28/28 29/29/29 30/30/30
s 3
f 31/31/31 34/32/32 33/33/33
f 33/33/33 34/32/32 35/34/34
f 34/32/32 36/35/35 35/34/34
f 35/34/34 36/35/35 37/36/36
f 37/36/36 36/35/35 32/37/37
s 4
f 41/38/38 42/39/39 40/40/40
f 44/41/41 42/39/39 43/42/42
f 43/42/42 42/39/39 41/38/38
f 39/43/43 44/41/41 38/44/44
f 38/44/44 44/41/41 43/42/42
s off
f 45/45/45 46/46/46 47/47/47
