# This file uses centimeters as units for non-parametric coordinates.

mtllib street3.mtl
g default
v -128.000000 -520.000000 -30720.000000
v -1088.000000 -520.000000 -30720.000000
v -1088.000000 -520.000000 -17399.527344
v -1088.000000 -520.000000 -23691.958984
v -641.158386 -520.000000 -23599.675781
v -128.000000 -520.000000 -16845.281250
v -128.000000 -520.000000 -30720.000000
v -1088.000000 -520.000000 -17399.527344
v -582.981445 -520.000000 -24406.908203
v -128.000000 -520.000000 -24179.138672
v 1088.000000 -520.000000 -30720.000000
v 128.000000 -520.000000 -30720.000000
v 128.000000 -520.000000 -16697.480469
v 128.000000 -520.000000 -23375.089844
v 582.799011 -520.000000 -23340.634766
v 1088.000000 -520.000000 -18048.000000
v 1088.000000 -520.000000 -30720.000000
v 128.000000 -520.000000 -16697.480469
v 564.682861 -520.000000 -23076.015625
v 1088.000000 -520.000000 -22989.902344
vt 41.333290 0.833332
vt 23.031118 0.833332
vt 41.333290 2.083331
vt 22.790794 1.415157
vt 6.644596 0.833332
vt 24.892965 1.490908
vt 24.299816 2.083331
vt 41.333290 2.083331
vt 5.201248 2.083331
vt 6.644596 0.833332
vt 41.333290 2.083331
vt 41.333290 0.833332
vt 22.116215 1.425518
vt 22.205936 0.833332
vt 4.816350 0.833332
vt 21.427101 1.401929
vt 21.202850 2.083331
vt 41.333290 2.083331
vt 8.333324 2.083331
vt 4.816350 0.833332
vn 0.000000 1.000000 0.000000
vn 0.000000 1.000000 0.000000
vn 0.000000 1.000000 0.000000
vn 0.000000 1.000000 0.000000
vn 0.000000 1.000000 0.000000
vn 0.000000 1.000000 0.000000
vn 0.000000 1.000000 0.000000
vn 0.000000 1.000000 0.000000
vn 0.000000 1.000000 0.000000
vn 0.000000 1.000000 0.000000
vn 0.000000 1.000000 0.000000
vn 0.000000 1.000000 0.000000
vn 0.000000 1.000000 0.000000
vn 0.000000 1.000000 0.000000
vn 0.000000 1.000000 0.000000
vn 0.000000 1.000000 0.000000
vn 0.000000 1.000000 0.000000
vn 0.000000 1.000000 0.000000
vn 0.000000 1.000000 0.000000
vn 0.000000 1.000000 0.000000
s 1
g road1
usemtl initialShadingGroup
f 2/1/1 4/2/2 1/3/3
f 1/3/3 4/2/2 5/4/4
f 5/4/4 4/2/2 3/5/5
s 2
f 9/6/6 10/7/7 7/8/8
f 6/9/9 10/7/7 8/10/10
f 8/10/10 10/7/7 9/6/6
s 3
f 11/11/11 12/12/12 15/13/13
f 15/13/13 12/12/12 14/14/14
f 15/13/13 14/14/14 13/15/15
s 4
f 19/16/16 20/17/17 17/18/18
f 20/17/17 19/16/16 16/19/19
f 16/19/19 19/16/16 18/20/20
