# This file uses centimeters as units for non-parametric coordinates.

mtllib street4.mtl
g default
v -3984.000000 -512.000000 -9280.000000
v -4752.000000 -512.000000 -9280.000000
v -4800.000000 -512.000000 -9088.000000
v -4032.000000 -512.000000 -9088.000000
v -3984.000000 -512.000000 -9280.000000
v -4800.000000 -512.000000 -9088.000000
v -4752.000000 -512.000000 -9920.000000
v -3984.000000 -512.000000 -9920.000000
v -4032.006104 -512.000000 -10112.024414
v -4800.005859 -512.000000 -10112.024414
v -4752.000000 -512.000000 -9920.000000
v -4032.006104 -512.000000 -10112.024414
v -5408.000000 -512.000000 -12544.000000
v -5275.428711 -512.000000 -12013.714844
v -4589.714355 -512.000000 -12342.857422
v -4736.000000 -512.000000 -12928.000000
v -5408.000000 -512.000000 -12544.000000
v -4589.714355 -512.000000 -12342.857422
v -7616.000000 -512.000000 -14752.000000
v -5408.000000 -512.000000 -12544.000000
v -4736.000000 -512.000000 -12928.000000
v -7232.000000 -512.000000 -15424.000000
v -7616.000000 -512.000000 -14752.000000
v -4736.000000 -512.000000 -12928.000000
v -10560.000000 -512.000000 -16256.000000
v -10560.000000 -512.000000 -15488.000000
v -7616.000000 -512.000000 -14752.000000
v -7232.000000 -512.000000 -15424.000000
v -10560.000000 -512.000000 -16256.000000
v -7616.000000 -512.000000 -14752.000000
v -4032.006104 -512.000000 -10112.024414
v -4191.999512 -512.000000 -10752.000000
v -4589.714355 -512.000000 -12342.857422
v -4800.005859 -512.000000 -10112.024414
v -4032.006104 -512.000000 -10112.024414
v -4589.714355 -512.000000 -12342.857422
v -5005.896484 -512.000000 -10935.585938
v -4800.005859 -512.000000 -10112.024414
v -4589.714355 -512.000000 -12342.857422
v -5013.746582 -512.000000 -10966.985352
v -5005.896484 -512.000000 -10935.585938
v -4589.714355 -512.000000 -12342.857422
v -5275.428711 -512.000000 -12013.714844
v -5013.746582 -512.000000 -10966.985352
v -4589.714355 -512.000000 -12342.857422
v -4800.000000 -512.000000 -9088.000000
v -5264.000000 -512.000000 -7232.000000
v -4832.000000 -512.000000 -7232.000000
v -4032.000000 -512.000000 -9088.000000
v -4800.000000 -512.000000 -9088.000000
v -4832.000000 -512.000000 -7232.000000
v -4192.000000 -512.000000 -8448.000000
v -4032.000000 -512.000000 -9088.000000
v -4832.000000 -512.000000 -7232.000000
v -4496.000000 -512.000000 -7232.000000
v -4192.000000 -512.000000 -8448.000000
v -4832.000000 -512.000000 -7232.000000
v -4736.000000 -512.000000 -6272.000000
v -4496.000000 -512.000000 -7232.000000
v -4832.000000 -512.000000 -7232.000000
v -5408.000000 -512.000000 -6656.000000
v -4736.000000 -512.000000 -6272.000000
v -4832.000000 -512.000000 -7232.000000
v -7616.000000 -512.000000 -4448.000000
v -7561.142578 -512.000000 -4352.000000
v -6656.000000 -512.000000 -4352.000000
v -6944.000000 -512.000000 -5120.000000
v -7616.000000 -512.000000 -4448.000000
v -6656.000000 -512.000000 -4352.000000
v -6256.000000 -512.000000 -5808.000000
v -6944.000000 -512.000000 -5120.000000
v -6656.000000 -512.000000 -4352.000000
v -5408.000000 -512.000000 -6656.000000
v -6256.000000 -512.000000 -5808.000000
v -6656.000000 -512.000000 -4352.000000
v -4736.000000 -512.000000 -6272.000000
v -5408.000000 -512.000000 -6656.000000
v -6656.000000 -512.000000 -4352.000000
v -4832.000000 -512.000000 -7232.000000
v -5264.000000 -512.000000 -7232.000000
v -5408.000000 -512.000000 -6656.000000
v -7414.856934 -512.000000 -4096.000000
v -6912.000000 -512.000000 -4096.000000
v -6656.000000 -512.000000 -4352.000000
v -7561.142578 -512.000000 -4352.000000
v -7414.856934 -512.000000 -4096.000000
v -6656.000000 -512.000000 -4352.000000
vt -5.244092 0.995281
vt -4.506530 -0.458678
vt -3.733453 -0.457355
vt -4.471015 0.996604
vt -5.244092 0.995281
vt -3.733453 -0.457355
vt -4.510084 -0.448781
vt -5.236282 1.006783
vt -4.463101 1.006409
vt -3.736903 -0.449155
vt -4.510084 -0.448781
vt -4.463101 1.006409
vt 6.055376 -0.453896
vt 3.920198 -0.452862
vt 4.519283 1.002060
vt 6.875342 1.000920
vt 6.055376 -0.453896
vt 4.519283 1.002060
vt 6.277771 -0.276521
vt -5.919739 -0.297394
vt -6.726605 1.159643
vt 7.061884 1.183238
vt 6.277771 -0.276521
vt -6.726605 1.159643
vt 6.481055 0.948346
vt 5.740679 -0.505256
vt -6.113130 -0.479237
vt -6.918902 0.977759
vt 6.481055 0.948346
vt -6.113130 -0.479237
vt -4.463101 1.006409
vt -1.886259 1.005162
vt 4.519283 1.002060
vt -3.736903 -0.449155
vt -4.463101 1.006409
vt 4.519283 1.002060
vt -0.420857 -0.450761
vt -3.736903 -0.449155
vt 4.519283 1.002060
vt -0.294428 -0.450822
vt -0.420857 -0.450761
vt 4.519283 1.002060
vt 3.920198 -0.452862
vt -0.294428 -0.450822
vt 4.519283 1.002060
vt -3.733453 -0.457355
vt 3.739626 -0.444568
vt 3.324747 0.373284
vt -4.471015 0.996604
vt -3.733453 -0.457355
vt 3.324747 0.373284
vt -1.894091 1.001013
vt -4.471015 0.996604
vt 3.324747 0.373284
vt 3.002064 1.009391
vt -1.894091 1.001013
vt 3.324747 0.373284
vt 6.867449 1.016005
vt 3.002064 1.009391
vt 3.324747 0.373284
vt 6.058857 -0.440600
vt 6.867449 1.016005
vt 3.324747 0.373284
vt -6.273564 0.297999
vt -6.388631 0.089851
vt -3.897077 -1.164483
vt -2.561278 0.291646
vt -6.273564 0.297999
vt -3.897077 -1.164483
vt 1.239395 0.285143
vt -2.561278 0.291646
vt -3.897077 -1.164483
vt 5.923945 0.277126
vt 1.239395 0.285143
vt -3.897077 -1.164483
vt 6.709453 -1.182633
vt 5.923945 0.277126
vt -3.897077 -1.164483
vt 3.324747 0.373284
vt 3.739626 -0.444568
vt 6.058857 -0.440600
vt -6.695477 -0.465211
vt -5.311281 -1.162063
vt -3.897077 -1.164483
vt -6.388631 0.089851
vt -6.695477 -0.465211
vt -3.897077 -1.164483
vn 0.000000 1.000000 0.000000
vn 0.000000 1.000000 0.000000
vn 0.000000 1.000000 0.000000
vn 0.000000 1.000000 0.000000
vn 0.000000 1.000000 0.000000
vn 0.000000 1.000000 0.000000
vn 0.000000 1.000000 0.000000
vn 0.000000 1.000000 0.000000
vn 0.000000 1.000000 0.000000
vn 0.000000 1.000000 0.000000
vn 0.000000 1.000000 0.000000
vn 0.000000 1.000000 0.000000
vn 0.000000 1.000000 0.000000
vn 0.000000 1.000000 0.000000
vn 0.000000 1.000000 0.000000
vn 0.000000 1.000000 0.000000
vn 0.000000 1.000000 0.000000
vn 0.000000 1.000000 0.000000
vn 0.000000 1.000000 0.000000
vn 0.000000 1.000000 0.000000
vn 0.000000 1.000000 0.000000
vn 0.000000 1.000000 0.000000
vn 0.000000 1.000000 0.000000
vn 0.000000 1.000000 0.000000
vn 0.000000 1.000000 0.000000
vn 0.000000 1.000000 0.000000
vn 0.000000 1.000000 0.000000
vn 0.000000 1.000000 0.000000
vn 0.000000 1.000000 0.000000
vn 0.000000 1.000000 0.000000
vn 0.000000 0.000000 0.000000
vn 0.000000 1.000000 0.000000
vn 0.000000 0.000000 0.000000
vn 0.000000 1.000000 0.000000
vn 0.000000 1.000000 0.000000
vn 0.000000 1.000000 0.000000
vn 0.000000 1.000000 0.000000
vn 0.000000 1.000000 0.000000
vn 0.000000 1.000000 0.000000
vn 0.000000 1.000000 0.000000
vn 0.000000 1.000000 0.000000
vn 0.000000 1.000000 0.000000
vn 0.000000 1.000000 0.000000
vn 0.000000 1.000000 0.000000
vn 0.000000 1.000000 0.000000
vn 0.000000 1.000000 0.000000
vn 0.000000 1.000000 0.000000
vn 0.000000 1.000000 0.000000
vn 0.000000 1.000000 0.000000
vn 0.000000 1.000000 0.000000
vn 0.000000 1.000000 0.000000
vn 0.000000 1.000000 0.000000
vn 0.000000 1.000000 0.000000
vn 0.000000 1.000000 0.000000
vn 0.000000 1.000000 0.000000
vn 0.000000 1.000000 0.000000
vn 0.000000 1.000000 0.000000
vn 0.000000 1.000000 0.000000
vn 0.000000 1.000000 0.000000
vn 0.000000 1.000000 0.000000
vn 0.000000 1.000000 0.000000
vn 0.000000 1.000000 0.000000
vn 0.000000 1.000000 0.000000
vn 0.000000 1.000000 0.000000
vn 0.000000 1.000000 0.000000
vn 0.000000 1.000000 0.000000
vn 0.000000 1.000000 0.000000
vn 0.000000 1.000000 0.000000
vn 0.000000 1.000000 0.000000
vn 0.000000 1.000000 0.000000
vn 0.000000 1.000000 0.000000
vn 0.000000 1.000000 0.000000
vn 0.000000 1.000000 0.000000
vn 0.000000 1.000000 0.000000
vn 0.000000 1.000000 0.000000
vn 0.000000 1.000000 0.000000
vn 0.000000 1.000000 0.000000
vn 0.000000 1.000000 0.000000
vn 0.000000 1.000000 0.000000
vn 0.000000 1.000000 0.000000
vn 0.000000 1.000000 0.000000
vn 0.000000 1.000000 0.000000
vn 0.000000 1.000000 0.000000
vn 0.000000 1.000000 0.000000
vn 0.000000 1.000000 0.000000
vn 0.000000 1.000000 0.000000
vn 0.000000 1.000000 0.000000
s off
g road4
usemtl initialShadingGroup
f 1/1/1 2/2/2 3/3/3
f 4/4/4 5/5/5 6/6/6
f 7/7/7 8/8/8 9/9/9
f 10/10/10 11/11/11 12/12/12
f 13/13/13 14/14/14 15/15/15
f 16/16/16 17/17/17 18/18/18
f 19/19/19 20/20/20 21/21/21
f 22/22/22 23/23/23 24/24/24
f 25/25/25 26/26/26 27/27/27
f 28/28/28 29/29/29 30/30/30
f 31/31/31 32/32/32 33/33/33
f 34/34/34 35/35/35 36/36/36
f 37/37/37 38/38/38 39/39/39
f 40/40/40 41/41/41 42/42/42
f 43/43/43 44/44/44 45/45/45
f 46/46/46 47/47/47 48/48/48
f 49/49/49 50/50/50 51/51/51
f 52/52/52 53/53/53 54/54/54
f 55/55/55 56/56/56 57/57/57
f 58/58/58 59/59/59 60/60/60
f 61/61/61 62/62/62 63/63/63
f 64/64/64 65/65/65 66/66/66
f 67/67/67 68/68/68 69/69/69
f 70/70/70 71/71/71 72/72/72
f 73/73/73 74/74/74 75/75/75
f 76/76/76 77/77/77 78/78/78
f 79/79/79 80/80/80 81/81/81
f 82/82/82 83/83/83 84/84/84
f 85/85/85 86/86/86 87/87/87
